<svg xmlns="http://www.w3.org/2000/svg" width="160" height="104" viewBox="0 0 160 104" fill="none">
  <title>Neurotropy Logo</title>
  <!-- Bulb (scaled down slightly) -->
  <g transform="translate(80,38) scale(0.88) translate(-80,-38)">
  <path d="M80 6C66 6 55 17 55 30.5c0 7.5 3.5 14 9 18v6.5h32v-6.5c5.5-4 9-10.5 9-18C105 17 94 6 80 6z" fill="rgba(168,85,247,0.12)" stroke="#a855f7" stroke-width="1.6" stroke-linejoin="round"/>
  <rect x="63" y="60.5" width="34" height="3.5" rx="1.75" fill="#a855f7"/>
  <rect x="65.5" y="66" width="29" height="3.5" rx="1.75" fill="rgba(168,85,247,0.5)"/>
  <rect x="68.5" y="71.5" width="23" height="3.5" rx="1.75" fill="rgba(168,85,247,0.2)"/>
  <polyline points="55,30.5 61,30.5 64,22 67.5,39 71,27.5 74,33 77,25 80,31 83,23.5 86.5,37 90,30.5 96,30.5 105,30.5" stroke="#a855f7" stroke-width="1.8" fill="none" stroke-linecap="round" stroke-linejoin="round"/>
  </g>
  <!-- Wordmark -->
  <text x="77.75" y="85" text-anchor="middle"
    font-family="-apple-system,'Helvetica Neue',Arial,sans-serif"
    font-weight="700" font-size="13" letter-spacing="4.5" fill="#f0e6ff">NEUROTROPY</text>
  <!-- Divider lines -->
  <line x1="30" y1="91" x2="52" y2="91" stroke="#a855f7" stroke-width="0.4" opacity="0.3"/>
  <line x1="108" y1="91" x2="130" y2="91" stroke="#a855f7" stroke-width="0.4" opacity="0.3"/>
  <!-- Tagline -->
  <text x="77.75" y="101" text-anchor="middle"
    font-family="-apple-system,'Helvetica Neue',Arial,sans-serif"
    font-weight="400" font-size="8" letter-spacing="2.5" fill="#d8b4fe">WARM UP YOUR BRAIN</text>
</svg>
